<svg width="40.000000" height="40.000000" viewBox="0 0 40 40" fill="none" xmlns="http://www.w3.org/2000/svg" xmlns:xlink="http://www.w3.org/1999/xlink">
	<desc>
			Created with Pixso.
	</desc>
	<defs>
		<clipPath id="clip2967_5884">
			<rect id="database" rx="0.000000" width="39.000000" height="39.000000" transform="translate(0.500000 0.500000) rotate(-0.000000)" fill="white" fill-opacity="0"/>
		</clipPath>
	</defs>
	<g clip-path="url(#clip2967_5884)">
		<ellipse id="Ellipse 1578" cx="19.999512" cy="8.333252" rx="13.333332" ry="5.000000" transform="rotate(-1.40334e-14 19.9995 8.33325)" stroke="#9155F7" stroke-opacity="1.000000" stroke-width="3.000000"/>
		<path id="Ellipse 1582" d="M14.99 18.8C13.79 18.61 12.66 18.37 11.66 18.07" stroke="#9155F7" stroke-opacity="1.000000" stroke-width="3.000000" stroke-linecap="round"/>
		<path id="Vector" d="M33.33 20C33.33 22.76 27.36 25 19.99 25C12.63 25 6.66 22.76 6.66 20" stroke="#9155F7" stroke-opacity="1.000000" stroke-width="3.000000"/>
		<path id="Vector" d="M14.99 30.46C13.79 30.28 12.66 30.03 11.66 29.73" stroke="#9155F7" stroke-opacity="1.000000" stroke-width="3.000000" stroke-linecap="round"/>
		<path id="Ellipse 1581" d="M33.33 8.33L33.33 31.66C33.33 34.42 27.36 36.66 19.99 36.66C12.63 36.66 6.66 34.42 6.66 31.66L6.66 8.33" stroke="#9155F7" stroke-opacity="1.000000" stroke-width="3.000000"/>
	</g>
</svg>
